<?xml version="1.0" encoding="utf-8"?>
<!-- Generator: Adobe Illustrator 24.2.1, SVG Export Plug-In . SVG Version: 6.00 Build 0)  -->
<svg version="1.1" id="Layer_1" focusable="false" xmlns="http://www.w3.org/2000/svg" xmlns:xlink="http://www.w3.org/1999/xlink"
	 x="0px" y="0px" viewBox="0 0 576 512" style="enable-background:new 0 0 576 512;" xml:space="preserve">
<style type="text/css">
	.st0{fill: #ff6600; enable-background:new    ;}
</style>
<g>
	<path class="st0" d="M176,168c-44.2,0-80,35.8-80,80s35.8,80,80,80s80-35.8,80-80S220.2,168,176,168z M400,168
		c-44.2,0-80,35.8-80,80s35.8,80,80,80s80-35.8,80-80S444.2,168,400,168z"/>
	<path class="st0" d="M80,352c-44.2,0-80,35.8-80,80s35.8,80,80,80s80-35.8,80-80S124.2,352,80,352z M288,352c-44.2,0-80,35.8-80,80
		s35.8,80,80,80s80-35.8,80-80S332.2,352,288,352z M496,352c-44.2,0-80,35.8-80,80s35.8,80,80,80s80-35.8,80-80S540.2,352,496,352z"
		/>
	<path class="st0" d="M288,0c-44.2,0-80,35.8-80,80s35.8,80,80,80s80-35.8,80-80S332.2,0,288,0z"/>
</g>
</svg>
